<?xml version="1.0" encoding="UTF-8" standalone="no"?>
<!-- Created with Inkscape (http://www.inkscape.org/) -->

<svg
   xmlns:dc="http://purl.org/dc/elements/1.1/"
   xmlns:cc="http://creativecommons.org/ns#"
   xmlns:rdf="http://www.w3.org/1999/02/22-rdf-syntax-ns#"
   xmlns:svg="http://www.w3.org/2000/svg"
   xmlns="http://www.w3.org/2000/svg"
   xmlns:sodipodi="http://sodipodi.sourceforge.net/DTD/sodipodi-0.dtd"
   xmlns:inkscape="http://www.inkscape.org/namespaces/inkscape"
   width="210mm"
   height="297mm"
   id="svg2"
   version="1.1"
   inkscape:version="0.48.2 r9819"
   sodipodi:docname="Documento nuevo 1">
  <defs
     id="defs4">
    <filter
       inkscape:collect="always"
       id="filter3906">
      <feGaussianBlur
         inkscape:collect="always"
         stdDeviation="4.7477778"
         id="feGaussianBlur3908" />
    </filter>
    <filter
       inkscape:collect="always"
       id="filter3924">
      <feGaussianBlur
         inkscape:collect="always"
         stdDeviation="2.5723964"
         id="feGaussianBlur3926" />
    </filter>
    <filter
       inkscape:collect="always"
       id="filter3934">
      <feGaussianBlur
         inkscape:collect="always"
         stdDeviation="2.4275735"
         id="feGaussianBlur3936" />
    </filter>
    <filter
       inkscape:collect="always"
       id="filter3952">
      <feGaussianBlur
         inkscape:collect="always"
         stdDeviation="3.2363357"
         id="feGaussianBlur3954" />
    </filter>
    <filter
       inkscape:collect="always"
       id="filter3982">
      <feGaussianBlur
         inkscape:collect="always"
         stdDeviation="3.2367546"
         id="feGaussianBlur3984" />
    </filter>
    <filter
       inkscape:collect="always"
       id="filter4038"
       x="-0.069860401"
       width="1.1397208"
       y="-0.12415944"
       height="1.2483189">
      <feGaussianBlur
         inkscape:collect="always"
         stdDeviation="18.041556"
         id="feGaussianBlur4040" />
    </filter>
    <filter
       inkscape:collect="always"
       id="filter4050"
       x="-0.13806537"
       width="1.2761307"
       y="-0.095553079"
       height="1.1911062">
      <feGaussianBlur
         inkscape:collect="always"
         stdDeviation="5.6125012"
         id="feGaussianBlur4052" />
    </filter>
  </defs>
  <sodipodi:namedview
     id="base"
     pagecolor="#ffffff"
     bordercolor="#666666"
     borderopacity="1.0"
     inkscape:pageopacity="0.0"
     inkscape:pageshadow="2"
     inkscape:zoom="0.73"
     inkscape:cx="362.92995"
     inkscape:cy="-1434.1024"
     inkscape:document-units="px"
     inkscape:current-layer="layer1"
     showgrid="false"
     inkscape:window-width="1116"
     inkscape:window-height="745"
     inkscape:window-x="0"
     inkscape:window-y="0"
     inkscape:window-maximized="0" />
  <metadata
     id="metadata7">
    <rdf:RDF>
      <cc:Work
         rdf:about="">
        <dc:format>image/svg+xml</dc:format>
        <dc:type
           rdf:resource="http://purl.org/dc/dcmitype/StillImage" />
        <dc:title></dc:title>
      </cc:Work>
    </rdf:RDF>
  </metadata>
  <g
     inkscape:label="Capa 1"
     inkscape:groupmode="layer"
     id="layer1">
    <path
       inkscape:connector-curvature="0"
       style="opacity:0.98999999;fill:#000000"
       d="m 676.13462,2366.3293 0,140.9688 c 4.60171,-0.6258 42.2514,-1.4092 70.65625,-1.4375 l 26.90625,-0.031 -0.71875,-22.75 c -1.25246,-39.5464 -1.56959,-78.1648 -0.75,-95.75 0.43655,-9.3657 0.41221,-17.7911 -0.0625,-18.75 -0.79831,-1.6123 -4.38837,-1.7595 -49.0625,-2 l -46.96875,-0.25 z"
       id="path3111" />
    <path
       style="opacity:0.98999999;fill:#000000"
       d="m 191.75258,2602.8672 c -36.17767,-6.1856 -75.79195,-21.8119 -97.958154,-38.6408 -16.640131,-11.4131 -36.073506,-29.9385 -45.041838,-46.6436 -3.217282,-6.3332 -1.548685,-12.5004 -2.436965,-21.8638 0.95893,-16.5214 -4.39919,-99.505 -0.983722,-121.2775 0.705933,-9.354 0.21594,-9.5163 1.511425,-19.9251 24.649866,-71.1252 69.714624,-75.3094 117.409254,-90.0261 25.96257,-7.9328 36.58087,-9.6255 55.38627,-8.8292 28.40159,1.2026 56.41808,9.8986 102.11373,31.6951 12.375,5.9027 25.70715,11.8875 29.627,13.2994 16.67792,6.0075 9.48115,5.7554 163.85388,5.7409 110.96287,-0.01 141.51538,0.2521 142.31029,1.2224 1.8159,2.2167 6.58698,14.9238 6.43585,27.1861 -1.2533,32.8066 -1.03532,66.5786 -0.86015,93.8779 -0.31676,30.7443 0.2183,59.4637 0.17032,85.6099 0,13.6592 -3.48424,29.3889 -5.72223,35.2821 l -1.0331,2.7205 -141.14093,0.305 -141.14093,0.305 -10.08388,2.6689 c -13.27543,3.5136 -20.43258,6.4366 -47.91612,19.569 -31.83417,15.2111 -56.4446,23.8506 -78.88099,27.6911 -10.75765,1.8414 -34.93924,1.8587 -45.61901,0.033 z"
       id="path3109"
       inkscape:connector-curvature="0"
       sodipodi:nodetypes="cccccccsscsccccscccssscc" />
    <rect
       style="fill:#999999;fill-opacity:0"
       id="rect4008"
       width="748.71796"
       height="748.71796"
       x="30.76923"
       y="1872.875"
       ry="4.1322312"
       inkscape:export-xdpi="6.0100002"
       inkscape:export-ydpi="6.0100002" />
    <path
       sodipodi:nodetypes="cccccccsscsccccscccssscc"
       inkscape:connector-curvature="0"
       id="path3904"
       d="m 191.75258,2602.8672 c -36.17767,-6.1856 -75.79195,-21.8119 -97.958154,-38.6408 -16.640131,-11.4131 -36.073506,-29.9385 -45.041838,-46.6436 -3.217282,-6.3332 -1.548685,-12.5004 -2.436965,-21.8638 0.95893,-16.5214 -4.39919,-99.505 -0.983722,-121.2775 0.705933,-9.354 0.21594,-9.5163 1.511425,-19.9251 24.649866,-71.1252 69.714624,-75.3094 117.409254,-90.0261 25.96257,-7.9328 36.58087,-9.6255 55.38627,-8.8292 28.40159,1.2026 56.41808,9.8986 102.11373,31.6951 12.375,5.9027 25.70715,11.8875 29.627,13.2994 16.67792,6.0075 9.48115,5.7554 163.85388,5.7409 110.96287,-0.01 141.51538,0.2521 142.31029,1.2224 1.8159,2.2167 6.58698,14.9238 6.43585,27.1861 -1.2533,32.8066 -1.03532,66.5786 -0.86015,93.8779 -0.31676,30.7443 0.2183,59.4637 0.17032,85.6099 0,13.6592 -3.48424,29.3889 -5.72223,35.2821 l -1.0331,2.7205 -141.14093,0.305 -141.14093,0.305 -10.08388,2.6689 c -13.27543,3.5136 -20.43258,6.4366 -47.91612,19.569 -31.83417,15.2111 -56.4446,23.8506 -78.88099,27.6911 -10.75765,1.8414 -34.93924,1.8587 -45.61901,0.033 z"
       style="opacity:0.98999999000000005;fill:#000000;filter:url(#filter4038)"
       inkscape:export-filename="/Users/guerrerocarlos/path3910.png"
       inkscape:export-xdpi="5.7199998"
       inkscape:export-ydpi="5.7199998" />
    <path
       inkscape:connector-curvature="0"
       id="path3910"
       d="m 676.13462,2366.3293 0,140.9688 c 4.60171,-0.6258 42.2514,-1.4092 70.65625,-1.4375 l 26.90625,-0.031 -0.71875,-22.75 c -1.25246,-39.5464 -1.56959,-78.1648 -0.75,-95.75 0.43655,-9.3657 0.41221,-17.7911 -0.0625,-18.75 -0.79831,-1.6123 -4.38837,-1.7595 -49.0625,-2 l -46.96875,-0.25 z"
       style="opacity:0.98999999000000005;fill:#000000;filter:url(#filter4050)"
       inkscape:export-xdpi="5.7199998"
       inkscape:export-ydpi="5.7199998" />
    <path
       inkscape:connector-curvature="0"
       id="path3102"
       d="m 197.64286,682.42353 c -34.02944,-2.63498 -85.0288,-22.12857 -110.268594,-42.14819 -4.096572,-3.2493 -7.36312,-5.04788 -9.427457,-5.1908 -7.003427,-0.48486 -28.07806,-26.82599 -34.633994,-43.28895 -3.0235,-7.59247 -3.155103,-8.38358 -1.751093,-10.52637 1.345791,-2.05394 1.351859,-2.9382 0.05346,-7.79055 -2.913746,-10.88918 -3.656794,-28.10927 -3.181092,-73.72155 0.368991,-35.38024 0.799226,-46.42742 2.054443,-52.75208 6.280912,-31.64764 25.809309,-58.87446 57.818437,-80.61144 19.80165,-13.44705 61.76187,-29.48472 90.16158,-34.46078 32.83048,-5.7524 71.46149,2.62666 121.17431,26.28268 27.01671,12.856 38.85212,17.90751 48.16309,20.55665 l 7.83691,2.22975 144.14386,0.27122 c 114.72155,0.21585 144.3581,0.52935 145.19342,1.53586 1.95844,2.35978 3.38655,14.13615 4.02564,33.19606 l 0.63708,19 48.21995,0.25959 c 44.67413,0.24049 48.2833,0.38756 49.08161,2 0.47471,0.95884 0.50585,9.37467 0.0693,18.74041 -0.81959,17.58509 -0.527,56.20349 0.72546,95.75 l 0.7205,22.75 -26.90843,0.0268 c -29.53592,0.0294 -69.18947,0.86859 -71.15843,1.50585 -0.92665,0.29991 -1.25,4.29459 -1.25,15.44253 0,16.89937 -2.20057,34.48396 -4.65476,37.19581 -1.50057,1.65811 -9.61643,1.77693 -143.21798,2.09685 -140.24853,0.33583 -141.71076,0.35972 -150.20429,2.45427 -11.82125,2.91519 -23.05418,7.4506 -46.32271,18.70328 -36.94925,17.86867 -68.03484,28.2377 -90.10026,30.05419 -13.94584,1.14806 -17.16553,1.20039 -27,0.43889 z m 4.90513,-148.47484 c 3.07718,-5.256 5.59487,-9.756 5.59487,-10 0,-0.24401 -2.3869,-0.44365 -5.30422,-0.44365 -4.10331,0 -6.31077,-0.6392 -9.75,-2.82325 -3.81824,-2.42473 -5.6962,-5.0361 -13.30426,-18.5 -4.87217,-8.62221 -9.20425,-15.67675 -9.62686,-15.67675 -0.4226,0 -1.80198,2.3625 -3.06528,5.25 -3.20503,7.3257 -3.23936,19.88114 -0.0764,27.95163 2.4477,6.24552 9.21981,14.45652 14.73383,17.86437 3.71459,2.29574 12.0961,5.80817 14.04834,5.88723 0.63533,0.0257 3.67283,-4.25359 6.75,-9.50958 z m 17.18369,5.58724 c 11.62,-5.72051 19.45516,-17.04528 21.02315,-30.38643 0.6885,-5.85811 -0.99268,-15.63168 -2.89702,-16.84179 -1.88725,-1.19926 -21.71495,-0.98211 -21.71495,0.23782 0,0.57227 0.997,2.38902 2.21557,4.03721 1.67011,2.25895 2.22404,4.41554 2.25,8.75979 0.0355,5.94653 -0.8959,7.88516 -16.85067,35.07234 l -2.00106,3.40983 5.8602,-0.60483 c 3.48564,-0.35974 8.39456,-1.85249 12.11478,-3.68394 z m 245.22225,-13.6431 c 1.68359,-0.33672 3.30515,-1.24826 3.60346,-2.02565 0.44733,-1.16572 -0.56116,-1.30036 -5.75464,-0.76828 -7.76414,0.79546 -12.12805,-1.07673 -14.22873,-6.10438 -2.43113,-5.81852 -1.54513,-6.38915 10.41321,-6.70661 l 10.65563,-0.28287 0.33148,-2.9061 c 0.45828,-4.01763 -2.41722,-9.91798 -5.81026,-11.9223 -6.14977,-3.63275 -15.25513,-0.98752 -18.55302,5.3899 -1.79919,3.47924 -2.15208,13.03153 -0.62744,16.98364 2.63322,6.82569 10.70178,10.19635 19.97031,8.34265 z m -16.1444,-19.05446 c -1.51656,-1.51655 -0.49373,-5.58911 1.97935,-7.88108 3.63721,-3.37085 9.52734,-3.3698 12.89943,0.002 2.77792,2.77791 3.24519,7.02808 0.87276,7.93846 -2.14264,0.82221 -14.91806,0.77381 -15.75154,-0.0597 z m -169.41667,16.99006 c 2.21426,-1.30323 0.0997,-2.32339 -4.81574,-2.32339 -3.06116,0 -6.4315,-0.46334 -7.48965,-1.02964 -3.50876,-1.87784 -5.19363,-6.71859 -4.75208,-13.65307 0.33768,-5.30318 0.86262,-6.82612 3.13444,-9.09363 2.41582,-2.41124 3.41387,-2.70371 8.70093,-2.54973 4.45943,0.12987 5.9721,-0.17122 5.9721,-1.18873 0,-1.93507 -8.04332,-2.95604 -12.27797,-1.55848 -8.57956,2.83151 -12.32654,14.74019 -7.78508,24.7426 1.94553,4.28497 4.32769,6.13124 9.56305,7.41174 2.77875,0.67965 7.99687,0.27415 9.75,-0.75767 z m 93.45145,-0.28291 c 4.48677,-2.73574 6.54204,-7.26787 6.61081,-14.57765 0.0951,-10.11167 -5.4247,-16.45972 -14.31226,-16.45972 -8.8731,0 -14.25,6.17353 -14.25,16.36124 0,10.72539 5.05856,16.62817 14.25,16.62817 2.70311,0 5.77837,-0.77946 7.70145,-1.95204 z m -10.20145,-0.76778 c -5.42575,-1.28145 -9.08403,-8.39888 -8.22665,-16.00552 1.82444,-16.18637 21.72665,-14.37303 21.72665,1.97957 0,9.66558 -5.91997,15.81619 -13.5,14.02595 z m 29.51844,-8.85231 c 0.68427,-14.41331 2.55212,-17.69312 10.07625,-17.69312 6.6221,0 7.32993,1.43029 7.90531,15.97397 0.66055,16.69643 2.52362,17.77236 3.2257,1.86285 0.58304,-13.21193 1.72991,-15.9056 7.44379,-17.48328 4.46939,-1.23405 8.15863,0.20657 10.0365,3.91919 0.7931,1.56797 1.27002,6.69413 1.27927,13.75 0.0122,9.32678 0.27117,11.25 1.51474,11.25 1.25365,0 1.5,-2.06107 1.5,-12.54966 0,-17.17756 -1.47277,-19.76239 -11.18372,-19.62837 -2.13332,0.0294 -5.3796,0.98109 -7.21394,2.11478 -3.26763,2.01951 -3.38344,2.02341 -5.71875,0.19257 -3.9589,-3.10369 -8.22451,-3.51445 -13.27882,-1.27869 -3.84772,1.70203 -4.66328,1.78379 -5.67179,0.56862 -0.64783,-0.78059 -1.57277,-1.41925 -2.05542,-1.41925 -0.48266,0 -0.87756,7.2375 -0.87756,16.08333 0,12.42024 0.2847,15.98929 1.25,15.67039 0.85409,-0.28215 1.41421,-3.87176 1.76844,-11.33333 z m -97.81893,-0.17039 c 0.54792,-12.9051 2.07194,-16.67872 7.32128,-18.12813 4.1623,-1.14927 9.10028,0.007 11.05966,2.59052 0.96557,1.27295 1.3651,5.31441 1.38775,14.03761 0.0265,10.20809 0.28183,12.25 1.5318,12.25 1.14523,0 1.52896,-1.35997 1.62243,-5.75 0.0673,-3.1625 0.25809,-8 0.42392,-10.75 0.3979,-6.59893 -1.08902,-12.06626 -3.79754,-13.96339 -2.80831,-1.96702 -10.97268,-1.98932 -14.74172,-0.0403 -3.79456,1.96225 -4.33475,0.99522 -4.43096,-7.93216 -0.0601,-5.57874 -0.39154,-7.06415 -1.57613,-7.06415 -1.2815,0 -1.53915,3.3139 -1.76877,22.75 -0.22314,18.88681 -0.0327,22.75 1.12154,22.75 1.07258,0 1.49464,-2.45686 1.84674,-10.75 z m 37.15864,7 c 0.34091,-2.0625 0.62479,-6.97797 0.63084,-10.92327 0.01,-6.21903 0.34986,-7.57598 2.55825,-10.2005 1.68085,-1.99757 3.9502,-3.30466 6.67207,-3.84294 5.29391,-1.04692 6.27526,-3.28329 1.44075,-3.28329 -2.28143,0 -4.54468,0.87348 -6.47769,2.5 -3.69153,3.10622 -4.00276,3.10262 -5.20525,-0.0602 -2.0623,-5.42423 -2.97712,-1.08563 -2.97712,14.11922 0,12.40282 0.26939,15.44098 1.36916,15.44098 0.80528,0 1.62443,-1.54442 1.98899,-3.75 z m -122.84793,-2.68982 c 6.34954,-2.65301 9.48236,-12.09284 6.31807,-19.03769 -3.05423,-6.70331 -13.98847,-8.9259 -20.28499,-4.12331 -8.10745,6.18385 -6.50771,19.09553 2.87189,23.17941 4.02279,1.75152 6.87028,1.7468 11.09503,-0.0184 z m -105.14311,-9.52729 c 0.78324,-0.78324 0.78364,-1.57035 0.001,-2.81041 -0.96647,-1.53285 -3.20884,-1.72248 -20.368107,-1.72248 -16.907105,0 -19.411476,0.20522 -20.333025,1.66618 -0.767253,1.21635 -0.681041,2.11194 0.319331,3.31732 1.214049,1.46284 3.532781,1.59333 20.331599,1.14423 11.654313,-0.31156 19.380512,-0.92615 20.049202,-1.59484 z m 85.13629,-13.34941 c 4.16553,-6.39437 6.94812,-7.14765 27.7466,-7.51139 14.94989,-0.26146 18.75,-0.60263 18.75,-1.68335 0,-2.51255 -9.45329,-11.0785 -15.5,-14.04508 -5.53632,-2.71617 -6.85008,-2.94366 -17,-2.94366 -10.10157,0 -11.43173,0.22747 -16.2859,2.78504 -2.90725,1.53177 -7.05917,4.38708 -9.22649,6.34512 l -3.94059,3.56009 1.60567,3.15487 c 0.88312,1.73519 3.42247,6.28669 5.643,10.11446 3.53516,6.09394 4.1721,6.73194 5.12082,5.12942 0.59592,-1.00659 1.98502,-3.21407 3.08689,-4.90552 z"
       style="fill:#ab905f" />
    <path
       inkscape:connector-curvature="0"
       id="path3100"
       d="m 188.14286,679.01768 c -36.17767,-6.18552 -75.79195,-21.81185 -97.958159,-38.6408 -5.662362,-4.29896 -9.998246,-6.87184 -11.580605,-6.87184 -6.775984,0 -33.461233,-33.15225 -33.461233,-41.57035 0,-0.89507 -0.737913,-3.18243 -1.639808,-5.08303 -1.355913,-2.85738 -1.423825,-3.8592 -0.392266,-5.78669 1.020279,-1.90641 0.94652,-3.58154 -0.404891,-9.19549 -3.717329,-15.44232 -4.39919,-99.505 -0.983722,-121.27752 0.812149,-5.17719 2.647641,-12.82719 4.078872,-17 2.450841,-7.14552 7.922659,-19.08692 8.746056,-19.08692 0.206497,0 -1.198118,3.63964 -3.121367,8.08809 -1.923249,4.44844 -3.71993,9.75152 -3.992624,11.7846 l -0.495808,3.69653 5.075555,1.30082 c 2.791556,0.71546 6.334062,1.02441 7.872237,0.68658 1.775858,-0.39005 3.519603,-0.0678 4.777223,0.88276 1.108278,0.8377 4.182628,1.52503 6.980543,1.56062 2.760872,0.0351 5.87216,0.7232 6.947543,1.53649 1.071149,0.81009 2.794523,1.20407 3.82972,0.87551 2.484815,-0.78865 14.945673,1.59345 16.222737,3.10124 0.55,0.64937 4.209577,1.49658 8.132407,1.88268 8.16234,0.80338 10.82008,-0.24944 19.82342,-7.85277 14.71628,-12.4279 51.93111,-31.66572 67.04417,-34.6578 3.01592,-0.59709 30.92146,-0.95973 70.32369,-0.91388 44.32315,0.0516 65.12028,-0.2531 64.69098,-0.94773 -0.34799,-0.56306 -2.1249,-1.02374 -3.94869,-1.02374 -7.41792,0 -9.61426,-1.04586 -11.84691,-5.64133 -1.16468,-2.39727 -2.71705,-4.35867 -3.44972,-4.35867 -0.73267,0 -1.61269,-0.7875 -1.95561,-1.75 -0.75982,-2.13268 -5.34299,-6.16453 -7.06374,-6.21404 -0.6875,-0.0198 -1.25,-0.48913 -1.25,-1.04302 0,-1.65676 -29.54448,-30.02111 -32.1435,-30.85954 -0.74607,-0.24068 -2.2855,-1.38166 -3.42095,-2.5355 -2.80199,-2.8474 -4.83464,-4.10981 -12.43555,-7.72332 -27.23581,-12.94805 -62.04259,-11.88214 -106.34051,3.25653 -4.86227,1.66167 -9.05529,2.80642 -9.31782,2.54389 -0.65048,-0.65048 12.97208,-5.81571 25.15833,-9.53922 25.96257,-7.93285 36.58087,-9.62554 55.38627,-8.82927 28.40159,1.2026 56.41808,9.89864 102.11373,31.69509 12.375,5.90277 25.70715,11.88754 29.627,13.29949 16.67792,6.00746 9.48115,5.75531 163.85388,5.74086 110.96287,-0.0104 141.51538,0.25205 142.31029,1.22241 1.8159,2.21669 3.5126,16.97339 3.36147,29.23564 -0.0814,6.6 0.28088,15.375 0.80495,19.5 0.52406,4.125 1.15824,36.67275 1.40928,72.32832 0.25105,35.65558 0.70531,65.0772 1.00948,65.38137 0.30417,0.30417 -0.10607,1.49405 -0.91166,2.64418 -1.11946,1.59825 -1.46469,5.441 -1.46469,16.30339 0,13.65923 -1.94705,30.66991 -4.18504,36.56316 l -1.0331,2.72042 -141.14093,0.305 -141.14093,0.30501 -10.08388,2.66893 c -13.27543,3.51364 -20.43258,6.43662 -47.91612,19.56895 -31.83417,15.21117 -56.4446,23.85064 -78.88099,27.6911 -10.75765,1.8414 -34.93924,1.85879 -45.61901,0.0328 z m 241.3184,-53.50812 c 0.45013,-0.40773 0.12733,-2.39531 -0.71732,-4.41685 -1.343,-3.21424 -1.35158,-3.74618 -0.0684,-4.23858 1.91512,-0.7349 1.89266,-2.34909 -0.0327,-2.34909 -0.825,0 -1.5,0.60526 -1.5,1.34501 0,0.73976 -0.9,2.1595 -2,3.15499 -1.94858,1.76344 -2,1.74663 -2,-0.65388 0,-3.10766 -2.64144,-6.81099 -3.731,-5.2309 -2.19915,3.18924 -9.769,1.93763 -9.769,-1.61522 0,-2.64367 -4.14287,-2.29786 -6.79986,0.56758 -2.5672,2.76862 -4.96398,2.55821 -4.47666,-0.39299 0.18166,-1.1001 -0.40961,-1.67459 -1.72348,-1.67459 -1.20101,0 -2.0051,0.67092 -2.01275,1.67942 -0.019,2.50709 -1.05087,3.08234 -3.38987,1.88987 -1.15356,-0.58811 -2.88488,-1.45176 -3.84738,-1.91923 -0.9625,-0.46746 -4.7875,-0.90092 -8.5,-0.96323 -5.18248,-0.087 -6.75,0.21281 -6.75,1.29092 0,2.03976 1.69197,2.76735 2.36383,1.01651 0.88389,-2.30338 4.56491,-1.93775 3.95543,0.39288 -0.27142,1.03793 -0.004,2.18949 0.59362,2.55902 1.63167,1.00842 1.34396,1.98466 -1.4843,5.0364 -3.10987,3.35561 -2.26088,4.59522 3.80155,5.55058 5.41462,0.85328 46.99254,-0.0361 48.08827,-1.02862 z m 11.95948,0.38426 c 0.92313,-0.92312 -5.08267,-5.62746 -6.25741,-4.90143 -0.56126,0.34688 -1.02047,1.72913 -1.02047,3.07167 0,2.09978 0.46594,2.44098 3.33333,2.44098 1.83334,0 3.60838,-0.27505 3.94455,-0.61122 z m 11.17941,-0.31968 c 1.07622,-1.74136 -1.64179,-2.31317 -3.26754,-0.68742 -1.4911,1.49109 -1.44888,1.61832 0.53695,1.61832 1.1854,0 2.41416,-0.41891 2.73059,-0.9309 z m -19.70743,-6.65257 c -0.95295,-0.95296 -2.86349,0.5906 -2.1533,1.7397 0.42212,0.683 0.98146,0.66575 1.69964,-0.0524 0.58876,-0.58876 0.79291,-1.34803 0.45366,-1.68727 z m -39.74986,-7.85751 c 0,-1.05548 -1.91911,-1.49891 -2.48992,-0.57533 -0.34546,0.55897 0.0734,1.01631 0.9309,1.01631 0.85746,0 1.55902,-0.19844 1.55902,-0.44098 z M 219.62791,541.65883 c 11.99581,-5.61352 20.68166,-17.28043 22.54658,-30.2848 1.13414,-7.90857 -0.3933,-17.98134 -3.09787,-20.42894 -1.03763,-0.93904 -1.65382,-2.08399 -1.36931,-2.54433 1.82865,-2.95883 -9.59767,-14.61514 -18.34638,-18.71566 -5.11578,-2.39777 -6.87671,-2.68006 -16.71807,-2.68006 -10.4574,0 -11.30546,0.15959 -17.19253,3.23538 -12.60704,6.58675 -20.74641,17.82975 -22.71821,31.3809 -0.88991,6.11594 1.59523,17.81644 5.02843,23.67476 6.13837,10.47434 19.47956,19.51509 28.09978,19.04202 2.31961,-0.1273 4.56961,0.13054 5,0.57299 1.48243,1.52395 12.72396,-0.42411 18.76758,-3.25226 z m -9.48505,-20.9988 c 0,-0.95701 3.31521,-4.15499 4.3073,-4.15499 0.3574,0 0.13724,1.125 -0.48925,2.5 -1.06484,2.33705 -3.81805,3.53047 -3.81805,1.65499 z m -24.50629,-11.52425 c -1.57376,-2.40186 -1.36183,-4.63074 0.44031,-4.63074 0.87969,0 2.35942,6.0399 1.65283,6.74649 -0.23488,0.23487 -1.17679,-0.71722 -2.09314,-2.11575 z m 22.96585,-18.1399 c -1.87399,-1.46904 -1.82855,-1.52422 1.04044,-1.26348 1.65,0.14995 2.92125,0.71139 2.825,1.24764 -0.2923,1.62855 -1.80029,1.63472 -3.86544,0.0158 z m 257.22534,36.46413 c 3.38549,-1.25677 5.37484,-3.63571 4.64052,-5.54931 -0.42242,-1.10082 -2.00206,-1.2638 -7.3931,-0.76275 -5.52085,0.51311 -7.35885,0.30764 -9.43874,-1.05516 -2.61213,-1.71153 -5.05917,-6.35157 -3.94289,-7.47644 0.33365,-0.33622 5.40874,-0.83631 11.27798,-1.11131 l 10.67133,-0.5 0.31097,-3.21796 c 0.40846,-4.22687 -2.94739,-11.67009 -6.23186,-13.82216 -7.11901,-4.66456 -17.23463,-1.97605 -21.56679,5.73199 -3.10069,5.51693 -2.63793,16.71644 0.89578,21.67907 4.19777,5.89522 13.75023,8.69245 20.7768,6.08403 z m -15.6849,-23.79998 c 0,-2.81335 3.25866,-5.15499 7.17375,-5.15499 3.73657,0 6.82625,2.41188 6.82625,5.32874 0,1.40251 -1.12564,1.67126 -7,1.67126 -6.13733,0 -7,-0.22738 -7,-1.84501 z m -79.3151,22.7784 c 6.87986,-2.60671 10.5651,-8.71683 10.5651,-17.51689 0,-11.49989 -5.84278,-17.8477 -16.44899,-17.87077 -6.15829,-0.0134 -9.35638,1.63874 -13.23922,6.83939 -3.02092,4.04619 -3.00177,18.1996 0.0302,22.29155 4.8352,6.52568 12.09991,8.90631 19.09295,6.25672 z m -9.47933,-5.94314 c -6.36749,-2.6605 -6.87918,-19.98284 -0.66077,-22.36907 4.80931,-1.8455 10.76734,0.30397 12.51102,4.51359 1.70807,4.12363 0.7352,13.51865 -1.64649,15.90035 -2.33668,2.33667 -7.10424,3.25018 -10.20376,1.95513 z m 30.86017,5.97457 c 1.72604,-0.92375 1.93585,-2.18859 1.949,-11.75 0.009,-6.54939 0.49989,-11.67357 1.26269,-13.18103 1.75755,-3.47331 6.89356,-4.807 10.19109,-2.64637 2.48253,1.62661 2.53148,1.89757 2.53148,14.01319 0,13.00046 0.71157,15.18293 4.70196,14.42141 1.57895,-0.30133 1.86159,-1.83372 2.31956,-12.57632 0.46436,-10.89249 0.76331,-12.47497 2.72777,-14.43944 2.47414,-2.47414 8.43673,-3.01858 10.50071,-0.95881 0.81636,0.81469 1.42346,5.8239 1.75,14.43931 0.44254,11.67581 0.70663,13.2313 2.29804,13.53512 3.96132,0.75627 4.70196,-1.44527 4.70196,-13.97644 0,-12.94293 -1.13465,-17.42549 -5.11687,-20.21475 -3.09459,-2.16753 -11.24396,-2.12133 -14.97884,0.0849 -2.66615,1.57493 -3.12978,1.58629 -5.65429,0.13849 -4.4267,-2.5387 -8.98501,-2.99166 -13.04304,-1.29611 -2.91373,1.21744 -4.12173,1.2904 -5.87035,0.35456 -1.21093,-0.64806 -2.90705,-0.90763 -3.76915,-0.57681 -1.33796,0.51344 -1.56746,3.08293 -1.56746,17.54956 0,16.25169 0.17547,17.3756 2.81574,18.03577 0.17366,0.0434 1.18616,-0.38688 2.25,-0.95623 z m -111.58722,-1.5862 c 3.11205,-3.11204 1.49377,-4.87623 -4.49856,-4.90416 -3.01398,-0.014 -6.44406,-0.36652 -7.62241,-0.78326 -3.74485,-1.32442 -6.03854,-9.44848 -4.39299,-15.55959 1.48272,-5.5064 4.46637,-7.37765 11.09545,-6.95871 4.05368,0.25619 5.41751,-0.0482 6.29092,-1.40414 3.16397,-4.91187 -10.1333,-7.4171 -17.26149,-3.25209 -4.96801,2.90281 -7.58597,8.58987 -7.58787,16.48333 -0.002,7.57006 2.18936,12.2012 7.45038,15.7466 4.19197,2.82497 13.96006,3.19853 16.52657,0.63202 z m 15.543,-11.12236 c 0.46652,-10.95264 0.75704,-12.47926 2.75505,-14.47727 1.54158,-1.54159 3.43203,-2.23354 6.10217,-2.23354 6.60449,0 7.1192,1.06938 7.13657,14.82699 0.008,6.67016 0.39682,12.72943 0.86309,13.46505 0.46628,0.73562 1.92189,1.18562 3.23469,1 2.37276,-0.33549 2.38855,-0.42167 2.66408,-14.5413 l 0.27718,-14.20381 -2.94405,-3.29619 c -2.76481,-3.09551 -3.32963,-3.2911 -9.27717,-3.21251 -3.48322,0.046 -7.23313,0.27102 -8.33313,0.5 -1.8464,0.38435 -2,-0.11157 -2,-6.45731 0,-5.4525 -0.36181,-7.10545 -1.75,-7.99489 -1.27893,-0.81943 -2.22107,-0.8243 -3.5,-0.0181 -1.57189,0.99087 -1.77737,3.47676 -2.01887,24.42421 -0.28363,24.60111 -0.1655,25.28514 4.26887,24.71815 1.8443,-0.23582 2.0406,-1.2089 2.52152,-12.49947 z m 37.06466,1.24249 c 0.34965,-6.56213 1.13492,-11.87992 1.9461,-13.17883 1.59191,-2.54905 5.06795,-4.31992 8.47959,-4.31992 3.0513,0 5.18477,-3.45567 3.43508,-5.56392 -1.67783,-2.02166 -6.91589,-1.773 -10.35073,0.49138 -2.88687,1.90312 -2.91418,1.90163 -4.68735,-0.25659 -1.44072,-1.75357 -2.13201,-1.95796 -3.59622,-1.06327 -1.60713,0.98201 -1.84399,2.9049 -2.08911,16.95985 -0.15205,8.71875 -0.0421,16.46297 0.24432,17.20938 0.31057,0.80934 1.63305,1.22917 3.27645,1.04014 l 2.75569,-0.31697 0.58618,-11.00125 z m -228.65761,-4.07018 c 1.99265,-1.99265 2.02196,-5.83518 0.0595,-7.79766 -2.34433,-2.34434 -9.56212,-2.97706 -26.441125,-2.31788 -16.65565,0.65046 -18.046942,1.13666 -18.046942,6.30667 0,5.00696 1.595968,5.3803 23,5.3803 16.71861,0 20.105517,-0.24837 21.428567,-1.57143 z M 336.39286,405.84276 c -0.6875,-0.27741 -1.8125,-0.27741 -2.5,0 -0.6875,0.27741 -0.125,0.50439 1.25,0.50439 1.375,0 1.9375,-0.22698 1.25,-0.50439 z m -278.562777,2.91228 c 3.916715,-6.21405 10.531039,-14.1269 16.926891,-20.25 l 6.789543,-6.5 -6.954158,7.5 c -3.824786,4.125 -9.377482,10.7625 -12.339323,14.75 -5.463223,7.35509 -7.579897,9.50863 -4.422953,4.5 z"
       style="fill:#323232" />
    <rect
       style="fill:none"
       id="rect3116"
       width="145.20802"
       height="231.64136"
       x="663.80811"
       y="409.2981" />
    <g
       id="g3994"
       transform="matrix(1.6700091,0,0,1.6700091,-297.59387,-564.39496)"
       inkscape:export-xdpi="6.0100002"
       inkscape:export-ydpi="6.0100002">
      <rect
         style="fill:#000000;fill-opacity:1;filter:url(#filter3952)"
         id="rect3938"
         width="137.54427"
         height="137.54427"
         x="451.93115"
         y="1500.7207" />
      <rect
         y="1500.7207"
         x="451.93115"
         height="137.54427"
         width="137.54427"
         id="rect3894"
         style="fill:#000000;fill-opacity:1" />
    </g>
    <g
       id="g3990"
       transform="matrix(1.6701746,0,0,1.6701746,-78.479577,-1106.9218)"
       inkscape:export-xdpi="6.0100002"
       inkscape:export-ydpi="6.0100002">
      <path
         style="fill:#000000;fill-opacity:1;filter:url(#filter3934)"
         d="m 116.09375,1502.5 0,137.5625 32.09375,0 0,-137.5625 -32.09375,0 z m 103.5625,0 0,137.5625 34,0 0,-137.5625 -34,0 z"
         id="path3928"
         inkscape:connector-curvature="0" />
      <path
         id="rect3896"
         d="m 116.09375,1502.5 0,137.5625 32.09375,0 0,-137.5625 -32.09375,0 z m 103.5625,0 0,137.5625 34,0 0,-137.5625 -34,0 z"
         style="fill:#000000;fill-opacity:1"
         inkscape:connector-curvature="0" />
    </g>
    <g
       id="g3986"
       transform="matrix(1.7202503,0,0,1.7202503,-87.002174,-992.47726)"
       inkscape:export-xdpi="6.0100002"
       inkscape:export-ydpi="6.0100002">
      <path
         style="fill:#000000;fill-opacity:1;filter:url(#filter3982)"
         d="m 114.32251,1702.5713 137.54427,73.2379 c 0,0 -137.03637,66.0927 -137.54427,64.3064 z"
         id="path3968"
         inkscape:connector-curvature="0"
         sodipodi:nodetypes="cccc" />
      <path
         sodipodi:nodetypes="cccc"
         inkscape:connector-curvature="0"
         id="rect3901"
         d="m 114.32251,1702.5713 137.54427,73.2379 c 0,0 -137.03637,66.0927 -137.54427,64.3064 z"
         style="fill:#000000;fill-opacity:1" />
    </g>
    <rect
       style="fill:#ffffff;fill-opacity:1"
       id="rect4004"
       width="47.107437"
       height="10.743802"
       x="61.157024"
       y="1249.8828"
       ry="4.1322312" />
    <rect
       style="fill:#cccccc;fill-opacity:0"
       id="rect4010"
       width="54.794521"
       height="12.328767"
       x="56.164383"
       y="501.67725"
       ry="4.1322312" />
    <rect
       style="fill:#ffffff;fill-opacity:1"
       id="rect4012"
       width="45.205479"
       height="10.958904"
       x="75.342461"
       y="2424.9648"
       ry="4.1322312" />
  </g>
</svg>
